<?xml version="1.0" encoding="UTF-8"?>
<svg id="Camada_1" data-name="Camada 1" xmlns="http://www.w3.org/2000/svg" viewBox="0 0 1500 1500">
  <defs>
    <style>
      .cls-1 {
        fill: #481423;
      }
    </style>
  </defs>
  <path class="cls-1" d="M1476.39,1293.41c.07-.02.09-.04.17-.08.04-.02.1-.05.18-.08.04-.08.08-.15.12-.22.25-.41.27-.92.02-1.33l-301.23-500.94-239.66-398.54c-.05-.08-.1-.15-.15-.23-.32-.45-.76-1.06-1.28-1.78-53.09-73.37-115.22-100.41-209.26-141.35-29.8-12.97-63.58-27.68-100.9-45.59-38.16-18.32-85.63-41.11-127.78-55.23-1.34-.45-2.9-1-4.4-1.54-.3-.11-.6-.21-.89-.31-3.09-1.09-5.86,2.23-4.26,5.09l.03.06c.03.05.06.11.1.16,77.28,121.33,151.22,247.64,222.72,369.8,77.46,132.33,157.56,269.17,241.95,399.71,64.47,99.72,194.73,180.63,299.39,245.65,11.95,7.42,23.24,14.43,34.42,21.46,6.22,3.9,12.64,7.97,19.45,12.28,53.1,33.63,119.19,75.48,170.94,93.02.04,0,.09.02.15.02.02,0,.09,0,.17-.03Z"/>
  <path class="cls-1" d="M586.09,496.75c-5.9,1.22-11.06,6.8-15.99,9.96L28.24,1227.78c-5.37,9.74,3.44,13.37,12.12,14.14,44.72,4,101.15-.68,146.52-2.02,110.56-3.27,143.61-.13,217.93-88.07,108.92-128.88,205.02-276.73,310.53-409.03,26.69-33.4,9.18-55.44-7.87-86.4-22.6-41.02-55.65-101.08-83-137.69-9.19-12.31-21.41-25.48-38.37-21.98Z"/>
  <path class="cls-1" d="M1428.78,1318.62c-16.79-11-69.05-38.2-78.65-43.8-176.06-102.86-341.93-226.29-516.32-333.05-27.74-16.98-104.75-68.68-132.66-71.37-25.57-2.46-41.83,24.13-56.27,41.62-29.8,36.11-57.57,74.6-85.39,112.09,42.26,19.84,82.78,43.45,122.96,67.16,105.11,62.04,207.48,135.82,313.46,194.67,112.18,62.3,252.65,68.94,378.63,57.16,12.11-1.13,42.72-4.6,54.36-8.76,9-2.29,9.88-4.69,10.03-5.61.45-2.66-2.79-5.69-10.16-10.11Z"/>
</svg>
