<?xml version="1.0" encoding="UTF-8"?>
<svg id="Camada_1" data-name="Camada 1" xmlns="http://www.w3.org/2000/svg" viewBox="0 0 1500 500">
  <defs>
    <style>
      .cls-1 {
        fill: #481423;
      }
    </style>
  </defs>
  <g>
    <path class="cls-1" d="M623.3,138.55c1.58,1.62,1.31,4.68,1.36,7.09v17.12c0,18.95-.02,37.88,0,57.01-1.2,35.73,5.07,73.65-11.28,106.03-17.59,33.42-55.78,44.91-93.04,49.11-76.22,8.09-170.39-9.34-165.49-103.65.05-36.33.13-89.5.11-125.18-.68-7.3,2.68-9.64,9.79-9h40.11c5.7-.24,12-.03,11.29,7.38.05,13.65.05,31.37.05,49.76-.03,23.59-.03,48.29-.02,70.52-2.42,41.68,23.42,59.55,62.83,61.45,32.78,1.65,77.56-3.26,83.2-43.09,1.73-11.47,1.15-19.73,1.13-31.79.18-29.76-.03-74.73.03-104.64-.58-7.45,1.71-10.18,9.43-9.52,6.11.03,14.6-.11,23.02-.18,10.21.53,19.34-1.32,27.33,1.44l.15.13h-.02Z"/>
    <path class="cls-1" d="M946.15,368.66c-15.83,2.63-32.91.19-49.61,1-14.26-.02-20.26,2.37-27.09-12.2-7.43-12.25-16.95-27.98-25.4-41.95-5.27-8.69-9.97-16.48-12.94-21.36-2.26-5.4-7.84-7.54-13.39-6.8-19.06.23-64.31-.84-83.15.27-8.3.27-3.46,18.58-4.72,24.52-.05,14.02.1,28.21.03,42.23.13,9.66,1.2,16.53-11.03,15.27-14.04-.31-33.52.61-47.88-.39-1.5-.34-2.1-.73-2.25-1.94-.84-12.68-.82-63.12-.68-113.55.15-50.16.45-100.35.21-112.97-.47-3.09,3.2-3.68,5.83-3.6,46.43.06,141.42-.39,185.36.15,24.2.84,51.41,4.25,67.98,23.42,24.89,31.83,21.97,94.35-20.53,109.66-6.83,2.92-19.08,6.2-11.42,15.41,5.59,8.82,17.9,28.26,27.46,43.31,9.27,14.62,18.05,28.42,22.26,35.12.76,1.29,2.04,2.96,1.03,4.26l-.11.11.03.02ZM867.38,232.94c9.01-9,9.37-27.96.81-37.4-12.58-12.31-31.86-8.11-47.93-8.9-19.87.03-44.38-.05-65.59-.05-6.64,0-13.51,0-19.37.1-4.81-.21-5.46,5.23-5.27,9.03-.02,9.85,0,20.44,0,30.55.32,5.85-1.92,15.25,6.93,14.38,9.27-.03,29.84.05,47.01.1,11.74.03,23.88.03,35.04,0,15.86-.89,35.57,2.92,48.19-7.61l.21-.19h-.03Z"/>
    <path class="cls-1" d="M1181.58,328.67c-2.05-1.47-4.36-1.28-6.64-1.24-12,.26-37.77-.11-63.55-.29-27.06-.03-51.78-.5-64.99,1.13-3.6,1.28-4.98,5.93-6.75,9.11-3.05,6.2-7.25,14.78-10.34,21.07-1.89,3.6-3.47,8.11-7.25,10.06-1.89.97-3.97,1.03-6.04,1.07-7.43.08-17.48.15-27.59.15s-20.19-.02-27.43-.16c-3.75,0-4.81-1.65-2.81-5.41,2.28-4.51,4.75-9.31,7.46-14.59,6.16-12.02,13.09-25.43,19.94-38.8,27.8-53.31,60.52-119.77,88.22-171.55,2.47-3.04,7.01-1.7,10.61-1.99,10.86.05,22.78-.1,33.91-.11,11.45-.03,22.88-.05,30.79.18,1.86.05,3.81.29,4.64,1.87,24.99,43.89,87.96,172.66,116.32,226.91,1.34,3.1-1.31,3.68-4.3,3.57-5.44.06-13.55.06-22.02.05-10.36-.02-22.6-.05-30.29-.05-10,.61-11.99-3.09-16.06-11.63-2.96-5.83-5.61-11.49-8.63-17.54-2.52-4.47-3.8-8.63-7.01-11.65l-.19-.15h.02ZM1158.48,279.89c.45-.9-.37-2.83-.92-3.99-2.28-4.8-4.73-9.61-7.08-14.35-5.67-11.32-11.32-22.91-17.58-35.69-5.49-11.2-11-22.39-15.86-31.63-.95-1.68-2.29-4.2-4.57-3.41-2.08.95-3.18,4.01-4.26,6.04-4.23,8.77-11.52,23.44-18.84,38.22-6.7,13.57-17.08,34.56-20.52,42.25-2.78,5.59,9.06,3.36,11.94,3.84h63.34c3.78-.03,7.75.1,11.52-.1,1.41-.11,2.36-.42,2.73-1.07l.06-.13h.03Z"/>
    <path class="cls-1" d="M1340.17,274.38c-1.78,1.08-4.91.86-6.3-.86-1.5-1.92-.37-6.12-3.1-4.36-12.33,11.39-39.37,9.06-49.95-3.63-6.75-8-7.69-19.73-4.72-29.47,3.44-11.44,15.15-17.93,26.46-18.9,12.46-1.15,27.37.05,34.94,11.16,1.79,2.76,4.35,7.69-.44,8.42-7.54.97-7.95-2.05-12.6-6.79-8.8-6.72-25.99-5.82-33.7,2.36-4.7,4.91-5.72,13.18-4.31,20.03,1.32,7.46,7.84,13.04,15.17,14.51,9.29,1.92,22.16,1.18,26.33-8.87,3.6-7.95-10.15-4.02-14.22-5.28-.61-.13-1.2-.32-1.73-.63-2.31-1.42-2.2-6.56.89-7.09,7.25-.69,14.62-.08,21.92-.27,5.95-.13,6.77.05,6.54,6.2v12.33c-.34,3.25.92,8.38-1.07,11.03l-.15.11h.02ZM1381.51,254.41c-.55,4.35-.11,10.1-.26,14.78.15,3.28-.44,6.09-4.62,5.8-4.05.26-6.09-.69-5.9-5.07-.18-5.19.37-10.29-.31-15.41-2.02-4.46-8.26-10.5-11.78-15.35-4.56-5.59-10-12.29-14.75-18.13-1.99-2.28-1.18-2.71,1.37-2.76,3.12.18,7.17-.69,9.94,1.16,4.49,4.51,8.27,10.16,12.34,14.94,1.99,2.44,5.32,6.72,6.91,8.55,1,1.28,2.04,1.24,3.02,0,5.96-7.04,12.42-15.4,18.53-22.57,2.07-2.25,4.36-2.12,7.9-2.12,1.36.15,6.07-.6,4.88,1.53-4.7,6.16-10.94,13.51-15.56,19.29-2.78,3.42-8.06,9.9-10.31,12.7-.6.78-1.15,1.5-1.41,2.44l-.05.21h.03ZM1487.62,274.59c-1.26.5-3.46.4-4.98.37-1.94.03-3.78-.58-3.86-2.73-.19-6.35,0-17.08-.06-24.15-.03-4.64.06-14.57-.06-17.67,0-.58-.1-1.78-.68-.87-3.65,7.27-8.51,18.74-12.05,26.3-1.97,4.33-5.43,12.02-7.19,15.83-.55,1.21-1.29,2.36-2.54,2.84-3.17.89-7.95.97-9.19-2.83-1.74-3.8-5.22-11.47-7.25-15.93-3.38-7.33-8.08-17.87-11.66-25.59-.53-1.08-1.32-2.86-1.39-.5-.13,3.15-.03,13.38-.06,18.09-.06,7.14.11,18.13-.06,24.51-.08,1.18-.65,2.18-1.83,2.47-1.91.36-4.91.48-6.66-.21-1.07-.53-1.21-1.81-1.21-2.94,0-7.51-.02-19.47,0-27.35.03-4.62-.06-18.98.05-23.59.06-.92.36-1.66,1.28-2,2.13-.65,4.7-.32,6.98-.4,4.72.11,8.19-.69,9.64,3.04,3.18,7,7,15.64,10.15,22.63,2.52,5.12,5.14,12.57,7.67,16.38.84.32,1.2-1.2,1.6-1.84,4.1-9.13,8.3-18.71,12.29-27.64,1.66-3.54,3.1-7.43,4.9-10.69,1.55-2.81,7.69-1.63,11.41-1.89,2.37.06,6.3-.48,6.04,2.89.05,5.02,0,18.63.02,23.1,0,7.87.05,21.81-.05,28.37-.05.84-.36,1.55-1.07,1.92l-.15.08h-.02Z"/>
  </g>
  <g>
    <path class="cls-1" d="M343.85,360.55l-125.37-208.47-.3-.41c-12.4-17.13-26.85-23.42-48.73-32.94-6.88-2.99-14.67-6.38-23.36-10.56-8.85-4.25-19.87-9.54-29.66-12.82-.3-.1-.66-.23-1.01-.35l-.21-.07c-.56-.2-1.18-.03-1.56.43-.39.46-.45,1.1-.11,1.7,17.89,28.08,35,57.32,51.58,85.65,17.94,30.65,36.49,62.34,56.06,92.62,15.01,23.22,45.25,42,69.54,57.09,2.77,1.72,5.38,3.34,7.97,4.97,1.16.73,2.35,1.48,3.6,2.27l.92.58c12.32,7.8,27.66,17.52,39.79,21.62h.15c.08.01.16,0,.33-.07l.22-.12.11-.18c.18-.29.19-.65.01-.94Z"/>
    <path class="cls-1" d="M167.38,234.08c5.83-7.3,2.84-12.55-.61-18.64-.38-.67-.77-1.35-1.15-2.05l-.09-.17c-5.12-9.29-12.85-23.33-19.18-31.8-2.2-2.94-5.25-6.21-9.5-5.32-1.08.22-2.03.97-2.87,1.62-.35.28-.7.55-1.04.77l-.09.06L7.21,345.76c-.53.95-.6,1.8-.22,2.51.62,1.17,2.25,1.55,3.5,1.66,3.02.27,6.23.37,9.55.37,5.18,0,10.61-.25,15.93-.49,2.95-.14,5.82-.27,8.53-.35l3.37-.1c23.15-.64,30.95-.86,47.57-20.52,14.2-16.8,27.66-35.27,40.68-53.14,10.11-13.88,20.57-28.23,31.26-41.63Z"/>
    <path class="cls-1" d="M332.51,366.58c-2.67-1.74-9.01-5.16-13.65-7.66-2.15-1.15-3.87-2.08-4.58-2.5-22.43-13.11-44.53-27.91-65.89-42.22-17.47-11.7-35.53-23.8-53.71-34.93-1.05-.65-2.42-1.51-3.99-2.5-8.02-5.08-21.45-13.58-27-14.12-5.4-.52-9.13,4.23-12.12,8.04-.49.63-.97,1.24-1.44,1.81-5.73,6.95-11.21,14.36-16.5,21.53l-3.74,5.06.67.32c9.57,4.49,18.54,9.69,28.43,15.53,10.69,6.31,21.43,13.26,31.82,19.98,13.29,8.59,27.02,17.47,40.81,25.13,17.27,9.59,39.2,14.42,65.4,14.42,7.23,0,14.79-.37,22.66-1.1.38-.03,9.47-.89,12.69-2.04,1.76-.45,2.64-1.01,2.77-1.79.18-1.04-.88-1.9-2.63-2.96Z"/>
  </g>
</svg>